<svg width="40" height="40" viewBox="0 0 40 40" fill="none" xmlns="http://www.w3.org/2000/svg">
<rect width="40" height="40" rx="20" fill="#1E3A5F"/>
<path d="M16 16H14.7773C13.4777 16 12.8284 16 12.3662 16.2651C11.9606 16.4978 11.6488 16.8653 11.486 17.3037C11.3005 17.8029 11.4073 18.4433 11.6206 19.7237L11.6211 19.7261L12.5544 25.3261C12.7128 26.276 12.7924 26.7512 13.0295 27.1077C13.2384 27.4219 13.5317 27.6703 13.876 27.8247C14.2665 27.9999 14.7479 28 15.7109 28H24.2893C25.2524 28 25.7334 27.9999 26.124 27.8247C26.4682 27.6703 26.7618 27.4219 26.9707 27.1077C27.2077 26.7512 27.287 26.276 27.4453 25.3261L28.3786 19.7261L28.3796 19.7222C28.5928 18.4428 28.6995 17.8027 28.5141 17.3037C28.3513 16.8653 28.0402 16.4978 27.6346 16.2651C27.1724 16 26.522 16 25.2224 16H24M16 16H24M16 16C16 13.7909 17.7909 12 20 12C22.2091 12 24 13.7909 24 16" stroke="white" stroke-width="2" stroke-linecap="round" stroke-linejoin="round"/>
</svg>
