<svg width="179" height="38" viewBox="0 0 179 38" fill="none" xmlns="http://www.w3.org/2000/svg">
<path d="M42.3723 28.4162C41.1747 28.4162 40.1015 28.2218 39.1527 27.833C38.204 27.4442 37.4419 26.8687 36.8664 26.1066C36.3065 25.3445 36.011 24.4268 35.9799 23.3536H40.2259C40.2881 23.9602 40.4981 24.4268 40.8558 24.7534C41.2136 25.0645 41.6802 25.22 42.2556 25.22C42.8467 25.22 43.3133 25.0878 43.6554 24.8234C43.9976 24.5435 44.1687 24.1624 44.1687 23.6802C44.1687 23.2759 44.0287 22.9415 43.7488 22.6771C43.4843 22.4127 43.1499 22.1949 42.7456 22.0238C42.3567 21.8527 41.7968 21.6583 41.0658 21.4406C40.0082 21.1139 39.145 20.7873 38.4762 20.4607C37.8074 20.1341 37.2319 19.6519 36.7498 19.0142C36.2676 18.3766 36.0265 17.5445 36.0265 16.5179C36.0265 14.9937 36.5787 13.8039 37.683 12.9484C38.7872 12.0775 40.2259 11.642 41.999 11.642C43.8032 11.642 45.2574 12.0775 46.3617 12.9484C47.466 13.8039 48.057 15.0015 48.1348 16.5413H43.8187C43.7876 16.0125 43.5932 15.6003 43.2355 15.3048C42.8778 14.9937 42.4189 14.8382 41.859 14.8382C41.3769 14.8382 40.988 14.9704 40.6925 15.2348C40.397 15.4836 40.2493 15.8491 40.2493 16.3313C40.2493 16.8601 40.4981 17.2723 40.9958 17.5678C41.4935 17.8633 42.2712 18.1821 43.3288 18.5243C44.3864 18.882 45.2419 19.2242 45.8951 19.5508C46.5639 19.8775 47.1394 20.3518 47.6215 20.974C48.1037 21.5961 48.3448 22.3971 48.3448 23.377C48.3448 24.3102 48.1037 25.1578 47.6215 25.9199C47.1549 26.682 46.4706 27.2886 45.5685 27.7397C44.6664 28.1907 43.601 28.4162 42.3723 28.4162ZM58.0555 24.8701V28.2529H56.0258C54.5793 28.2529 53.4517 27.903 52.6429 27.2031C51.8342 26.4876 51.4298 25.3289 51.4298 23.7269V18.5476H49.8433V15.2348H51.4298V12.0619H55.4192V15.2348H58.0322V18.5476H55.4192V23.7736C55.4192 24.1624 55.5125 24.4424 55.6992 24.6134C55.8858 24.7845 56.1969 24.8701 56.6324 24.8701H58.0555ZM73.1325 15.2348V28.2529H69.1431V26.4798C68.7387 27.0553 68.1866 27.5219 67.4867 27.8796C66.8023 28.2218 66.0402 28.3929 65.2003 28.3929C64.2049 28.3929 63.3261 28.1752 62.564 27.7397C61.8019 27.2886 61.2109 26.6432 60.791 25.8033C60.371 24.9634 60.161 23.9758 60.161 22.8404V15.2348H64.1271V22.3038C64.1271 23.1748 64.3527 23.8513 64.8037 24.3335C65.2548 24.8156 65.8613 25.0567 66.6235 25.0567C67.4011 25.0567 68.0155 24.8156 68.4665 24.3335C68.9176 23.8513 69.1431 23.1748 69.1431 22.3038V15.2348H73.1325ZM75.2049 21.7205C75.2049 20.3829 75.4537 19.2087 75.9514 18.1977C76.4647 17.1867 77.1568 16.4091 78.0278 15.8647C78.8988 15.3203 79.8709 15.0481 80.9441 15.0481C81.7995 15.0481 82.5772 15.227 83.2771 15.5847C83.9925 15.9425 84.5524 16.4246 84.9568 17.0312V10.9887H88.9463V28.2529H84.9568V26.3865C84.5835 27.0087 84.047 27.5064 83.3471 27.8796C82.6627 28.2529 81.8617 28.4396 80.9441 28.4396C79.8709 28.4396 78.8988 28.1674 78.0278 27.623C77.1568 27.0631 76.4647 26.2777 75.9514 25.2667C75.4537 24.2402 75.2049 23.0581 75.2049 21.7205ZM84.9568 21.7439C84.9568 20.7484 84.6769 19.963 84.1169 19.3875C83.5726 18.8121 82.9038 18.5243 82.1106 18.5243C81.3173 18.5243 80.6408 18.8121 80.0809 19.3875C79.5365 19.9474 79.2643 20.7251 79.2643 21.7205C79.2643 22.7159 79.5365 23.5092 80.0809 24.1002C80.6408 24.6757 81.3173 24.9634 82.1106 24.9634C82.9038 24.9634 83.5726 24.6757 84.1169 24.1002C84.6769 23.5247 84.9568 22.7393 84.9568 21.7439ZM105.131 15.2348L96.965 34.4354H92.6723L95.6585 27.8097L90.3626 15.2348H94.8187L97.8282 23.377L100.814 15.2348H105.131Z" fill="#1E3A5F"/>
<path d="M117.443 28.4162C116.245 28.4162 115.172 28.2218 114.223 27.833C113.275 27.4442 112.513 26.8687 111.937 26.1066C111.377 25.3445 111.082 24.4268 111.051 23.3536H115.297C115.359 23.9602 115.569 24.4268 115.926 24.7534C116.284 25.0645 116.751 25.22 117.326 25.22C117.917 25.22 118.384 25.0878 118.726 24.8234C119.068 24.5435 119.239 24.1624 119.239 23.6802C119.239 23.2759 119.099 22.9415 118.819 22.6771C118.555 22.4127 118.221 22.1949 117.816 22.0238C117.427 21.8527 116.867 21.6583 116.136 21.4406C115.079 21.1139 114.216 20.7873 113.547 20.4607C112.878 20.1341 112.303 19.6519 111.82 19.0142C111.338 18.3766 111.097 17.5445 111.097 16.5179C111.097 14.9937 111.649 13.8039 112.754 12.9484C113.858 12.0775 115.297 11.642 117.07 11.642C118.874 11.642 120.328 12.0775 121.432 12.9484C122.537 13.8039 123.128 15.0015 123.205 16.5413H118.889C118.858 16.0125 118.664 15.6003 118.306 15.3048C117.948 14.9937 117.49 14.8382 116.93 14.8382C116.448 14.8382 116.059 14.9704 115.763 15.2348C115.468 15.4836 115.32 15.8491 115.32 16.3313C115.32 16.8601 115.569 17.2723 116.066 17.5678C116.564 17.8633 117.342 18.1821 118.399 18.5243C119.457 18.882 120.313 19.2242 120.966 19.5508C121.635 19.8775 122.21 20.3518 122.692 20.974C123.174 21.5961 123.415 22.3971 123.415 23.377C123.415 24.3102 123.174 25.1578 122.692 25.9199C122.226 26.682 121.541 27.2886 120.639 27.7397C119.737 28.1907 118.672 28.4162 117.443 28.4162ZM133.126 24.8701V28.2529H131.096C129.65 28.2529 128.522 27.903 127.714 27.2031C126.905 26.4876 126.5 25.3289 126.5 23.7269V18.5476H124.914V15.2348H126.5V12.0619H130.49V15.2348H133.103V18.5476H130.49V23.7736C130.49 24.1624 130.583 24.4424 130.77 24.6134C130.956 24.7845 131.268 24.8701 131.703 24.8701H133.126ZM134.555 21.7205C134.555 20.3829 134.804 19.2087 135.302 18.1977C135.815 17.1867 136.507 16.4091 137.378 15.8647C138.249 15.3203 139.221 15.0481 140.294 15.0481C141.212 15.0481 142.013 15.2348 142.697 15.6081C143.397 15.9813 143.934 16.4713 144.307 17.0779V15.2348H148.296V28.2529H144.307V26.4099C143.918 27.0164 143.374 27.5064 142.674 27.8796C141.99 28.2529 141.189 28.4396 140.271 28.4396C139.213 28.4396 138.249 28.1674 137.378 27.623C136.507 27.0631 135.815 26.2777 135.302 25.2667C134.804 24.2402 134.555 23.0581 134.555 21.7205ZM144.307 21.7439C144.307 20.7484 144.027 19.963 143.467 19.3875C142.923 18.8121 142.254 18.5243 141.461 18.5243C140.668 18.5243 139.991 18.8121 139.431 19.3875C138.887 19.9474 138.615 20.7251 138.615 21.7205C138.615 22.7159 138.887 23.5092 139.431 24.1002C139.991 24.6757 140.668 24.9634 141.461 24.9634C142.254 24.9634 142.923 24.6757 143.467 24.1002C144.027 23.5247 144.307 22.7393 144.307 21.7439ZM150.389 21.7439C150.389 20.3907 150.662 19.2087 151.206 18.1977C151.766 17.1867 152.536 16.4091 153.516 15.8647C154.511 15.3203 155.646 15.0481 156.922 15.0481C158.555 15.0481 159.916 15.4759 161.005 16.3313C162.109 17.1867 162.832 18.3921 163.174 19.9474H158.928C158.571 18.952 157.878 18.4543 156.852 18.4543C156.121 18.4543 155.538 18.7421 155.102 19.3175C154.667 19.8775 154.449 20.6862 154.449 21.7439C154.449 22.8015 154.667 23.618 155.102 24.1935C155.538 24.7534 156.121 25.0334 156.852 25.0334C157.878 25.0334 158.571 24.5357 158.928 23.5403H163.174C162.832 25.0645 162.109 26.2621 161.005 27.1331C159.9 28.0041 158.539 28.4396 156.922 28.4396C155.646 28.4396 154.511 28.1674 153.516 27.623C152.536 27.0787 151.766 26.301 151.206 25.29C150.662 24.2791 150.389 23.097 150.389 21.7439ZM173.264 28.2529L169.298 22.7937V28.2529H165.308V10.9887H169.298V20.5307L173.24 15.2348H178.163L172.751 21.7672L178.21 28.2529H173.264Z" fill="#FF7A00"/>
<path d="M24.1248 36.4297H3.80452C1.62016 36.4297 -0.113906 34.595 0.00585033 32.4107L0.518407 24.8277L15.9765 30.3269C16.0771 30.3652 16.1825 30.3796 16.2879 30.3796C16.6711 30.3796 17.0304 30.1401 17.1645 29.7617C17.337 29.2778 17.0831 28.7461 16.5993 28.5737L0.647744 22.8972L1.43813 11.1899C1.54831 9.17316 3.22011 7.59717 5.2368 7.59717H22.6829C24.6996 7.59717 26.3714 9.17795 26.4816 11.1899L27.0085 18.9692L12.1779 13.6904C11.6941 13.5179 11.1623 13.7718 10.9899 14.2556C10.8174 14.7394 11.0713 15.2712 11.5551 15.4436L27.1426 20.9907L27.9139 32.4011C28.0336 34.5854 26.2995 36.4201 24.1152 36.4201L24.1248 36.4297Z" fill="url(#paint0_linear_8_12)"/>
<path d="M14.0844 0.74707C10.7504 0.74707 8.03909 3.45835 8.03909 6.79237H10.827C10.827 4.99602 12.288 3.53979 14.0796 3.53979C15.8712 3.53979 17.3322 5.00081 17.3322 6.79237H20.1201C20.1201 3.45835 17.4088 0.74707 14.0748 0.74707H14.0844Z" fill="url(#paint1_linear_8_12)"/>
<defs>
<linearGradient id="paint0_linear_8_12" x1="13.9694" y1="35.7495" x2="13.9694" y2="8.4642" gradientUnits="userSpaceOnUse">
<stop stop-color="#1E3A5F"/>
<stop offset="1" stop-color="#0057C9"/>
</linearGradient>
<linearGradient id="paint1_linear_8_12" x1="14.0844" y1="6.70135" x2="14.0844" y2="0.732699" gradientUnits="userSpaceOnUse">
<stop stop-color="#FF7A00"/>
<stop offset="1" stop-color="#BA6C25"/>
</linearGradient>
</defs>
</svg>
